<svg xmlns="http://www.w3.org/2000/svg" width="512" height="512" viewBox="0 0 512 512">
  <rect width="512" height="512" rx="96" fill="#1f6feb"/>
  <rect x="58" y="58" width="396" height="396" rx="72" fill="#f9f7ef"/>
  <path d="M150 353V161h75c67 0 111 24 111 82 0 57-44 82-111 82h-28v28Zm40-61h27c43 0 70-13 70-49s-27-48-70-48h-27Z" fill="#174ea6"/>
  <path d="M314 377c49-18 80-50 80-85 0-34-27-58-64-58-32 0-58 19-67 50l35 14c4-21 17-31 33-31 17 0 28 11 28 27 0 20-18 40-54 54l9 29Z" fill="#16a34a"/>
</svg>
